<mxfile host="app.diagrams.net" modified="2022-03-17T00:51:03.126Z" agent="5.0 (Windows NT 10.0; Win64; x64) AppleWebKit/537.36 (KHTML, like Gecko) Chrome/99.0.4844.51 Safari/537.36" etag="1HYTri3zgcpeECakdoy5" version="17.1.3" type="github">
  <diagram id="OpeapwmnI2Ru5jh5qQFM" name="Page-1">
    <mxGraphModel dx="1157" dy="643" grid="1" gridSize="10" guides="1" tooltips="1" connect="1" arrows="1" fold="1" page="1" pageScale="1" pageWidth="827" pageHeight="1169" math="0" shadow="0">
      <root>
        <mxCell id="0" />
        <mxCell id="1" parent="0" />
        <mxCell id="gA8so0gqrRHw72dQTXa9-3" style="edgeStyle=orthogonalEdgeStyle;rounded=0;orthogonalLoop=1;jettySize=auto;html=1;entryX=0.5;entryY=0;entryDx=0;entryDy=0;" edge="1" parent="1" source="gA8so0gqrRHw72dQTXa9-1" target="gA8so0gqrRHw72dQTXa9-2">
          <mxGeometry relative="1" as="geometry" />
        </mxCell>
        <mxCell id="gA8so0gqrRHw72dQTXa9-1" value="Inicio" style="rounded=0;whiteSpace=wrap;html=1;" vertex="1" parent="1">
          <mxGeometry x="339" y="20" width="120" height="60" as="geometry" />
        </mxCell>
        <mxCell id="gA8so0gqrRHw72dQTXa9-5" style="edgeStyle=orthogonalEdgeStyle;rounded=0;orthogonalLoop=1;jettySize=auto;html=1;entryX=0.5;entryY=0;entryDx=0;entryDy=0;" edge="1" parent="1" source="gA8so0gqrRHw72dQTXa9-2" target="gA8so0gqrRHw72dQTXa9-4">
          <mxGeometry relative="1" as="geometry" />
        </mxCell>
        <mxCell id="gA8so0gqrRHw72dQTXa9-2" value="21,41" style="shape=parallelogram;perimeter=parallelogramPerimeter;whiteSpace=wrap;html=1;fixedSize=1;" vertex="1" parent="1">
          <mxGeometry x="339" y="150" width="120" height="60" as="geometry" />
        </mxCell>
        <mxCell id="gA8so0gqrRHw72dQTXa9-12" style="edgeStyle=orthogonalEdgeStyle;rounded=0;orthogonalLoop=1;jettySize=auto;html=1;" edge="1" parent="1" source="gA8so0gqrRHw72dQTXa9-4" target="gA8so0gqrRHw72dQTXa9-13">
          <mxGeometry relative="1" as="geometry">
            <mxPoint x="150" y="370" as="targetPoint" />
          </mxGeometry>
        </mxCell>
        <mxCell id="gA8so0gqrRHw72dQTXa9-19" style="edgeStyle=orthogonalEdgeStyle;rounded=0;orthogonalLoop=1;jettySize=auto;html=1;" edge="1" parent="1" source="gA8so0gqrRHw72dQTXa9-4" target="gA8so0gqrRHw72dQTXa9-20">
          <mxGeometry relative="1" as="geometry">
            <mxPoint x="660" y="370" as="targetPoint" />
          </mxGeometry>
        </mxCell>
        <mxCell id="gA8so0gqrRHw72dQTXa9-4" value="Maior numero&lt;br&gt;" style="rhombus;whiteSpace=wrap;html=1;" vertex="1" parent="1">
          <mxGeometry x="354" y="260" width="90" height="90" as="geometry" />
        </mxCell>
        <mxCell id="gA8so0gqrRHw72dQTXa9-11" style="edgeStyle=orthogonalEdgeStyle;rounded=0;orthogonalLoop=1;jettySize=auto;html=1;entryX=0.5;entryY=0;entryDx=0;entryDy=0;" edge="1" parent="1" source="gA8so0gqrRHw72dQTXa9-8" target="gA8so0gqrRHw72dQTXa9-10">
          <mxGeometry relative="1" as="geometry" />
        </mxCell>
        <mxCell id="gA8so0gqrRHw72dQTXa9-8" value="41&lt;br&gt;" style="shape=document;whiteSpace=wrap;html=1;boundedLbl=1;" vertex="1" parent="1">
          <mxGeometry x="339" y="505" width="120" height="80" as="geometry" />
        </mxCell>
        <mxCell id="gA8so0gqrRHw72dQTXa9-10" value="Fim" style="rounded=1;whiteSpace=wrap;html=1;" vertex="1" parent="1">
          <mxGeometry x="339" y="700" width="120" height="60" as="geometry" />
        </mxCell>
        <mxCell id="gA8so0gqrRHw72dQTXa9-24" style="edgeStyle=orthogonalEdgeStyle;rounded=0;orthogonalLoop=1;jettySize=auto;html=1;entryX=0;entryY=0.5;entryDx=0;entryDy=0;" edge="1" parent="1" source="gA8so0gqrRHw72dQTXa9-13" target="gA8so0gqrRHw72dQTXa9-8">
          <mxGeometry relative="1" as="geometry" />
        </mxCell>
        <mxCell id="gA8so0gqrRHw72dQTXa9-13" value="21&lt;br&gt;" style="shape=parallelogram;perimeter=parallelogramPerimeter;whiteSpace=wrap;html=1;fixedSize=1;" vertex="1" parent="1">
          <mxGeometry x="50" y="340" width="120" height="60" as="geometry" />
        </mxCell>
        <mxCell id="gA8so0gqrRHw72dQTXa9-25" style="edgeStyle=orthogonalEdgeStyle;rounded=0;orthogonalLoop=1;jettySize=auto;html=1;entryX=1;entryY=0.5;entryDx=0;entryDy=0;" edge="1" parent="1" source="gA8so0gqrRHw72dQTXa9-20" target="gA8so0gqrRHw72dQTXa9-8">
          <mxGeometry relative="1" as="geometry" />
        </mxCell>
        <mxCell id="gA8so0gqrRHw72dQTXa9-20" value="41" style="shape=parallelogram;perimeter=parallelogramPerimeter;whiteSpace=wrap;html=1;fixedSize=1;" vertex="1" parent="1">
          <mxGeometry x="600" y="340" width="120" height="60" as="geometry" />
        </mxCell>
      </root>
    </mxGraphModel>
  </diagram>
</mxfile>
